<svg width="164" height="17" viewBox="0 0 164 17" fill="none" xmlns="http://www.w3.org/2000/svg">
<path d="M4.14844 5.22461L1.32422 13H0.169922L3.42188 4.46875H4.16602L4.14844 5.22461ZM6.51562 13L3.68555 5.22461L3.66797 4.46875H4.41211L7.67578 13H6.51562ZM6.36914 9.8418V10.7676H1.57617V9.8418H6.36914ZM11.089 4.46875V13H9.9757V4.46875H11.089ZM13.8312 4.46875V5.39453H7.23938V4.46875H13.8312ZM19.9631 10.2871H21.0881C21.0295 10.8262 20.8752 11.3086 20.6252 11.7344C20.3752 12.1602 20.0217 12.498 19.5647 12.748C19.1077 12.9941 18.5373 13.1172 17.8538 13.1172C17.3538 13.1172 16.8987 13.0234 16.4885 12.8359C16.0823 12.6484 15.7327 12.3828 15.4397 12.0391C15.1467 11.6914 14.9202 11.2754 14.76 10.791C14.6038 10.3027 14.5256 9.75977 14.5256 9.16211V8.3125C14.5256 7.71484 14.6038 7.17383 14.76 6.68945C14.9202 6.20117 15.1487 5.7832 15.4455 5.43555C15.7463 5.08789 16.1077 4.82031 16.5295 4.63281C16.9514 4.44531 17.426 4.35156 17.9534 4.35156C18.5979 4.35156 19.1428 4.47266 19.5881 4.71484C20.0334 4.95703 20.3791 5.29297 20.6252 5.72266C20.8752 6.14844 21.0295 6.64258 21.0881 7.20508H19.9631C19.9084 6.80664 19.8069 6.46484 19.6584 6.17969C19.51 5.89062 19.2991 5.66797 19.0256 5.51172C18.7522 5.35547 18.3948 5.27734 17.9534 5.27734C17.5745 5.27734 17.2405 5.34961 16.9514 5.49414C16.6663 5.63867 16.426 5.84375 16.2307 6.10938C16.0393 6.375 15.8948 6.69336 15.7971 7.06445C15.6995 7.43555 15.6506 7.84766 15.6506 8.30078V9.16211C15.6506 9.58008 15.6936 9.97266 15.7795 10.3398C15.8694 10.707 16.0041 11.0293 16.1838 11.3066C16.3635 11.584 16.592 11.8027 16.8694 11.9629C17.1467 12.1191 17.4748 12.1973 17.8538 12.1973C18.3342 12.1973 18.717 12.1211 19.0022 11.9688C19.2873 11.8164 19.5022 11.5977 19.6467 11.3125C19.7952 11.0273 19.9006 10.6855 19.9631 10.2871ZM28.5239 5.22461L25.6997 13H24.5454L27.7973 4.46875H28.5415L28.5239 5.22461ZM30.8911 13L28.061 5.22461L28.0434 4.46875H28.7876L32.0513 13H30.8911ZM30.7446 9.8418V10.7676H25.9516V9.8418H30.7446ZM33.9938 8.01367V13H32.9098V6.66016H33.9352L33.9938 8.01367ZM33.7359 9.58984L33.2848 9.57227C33.2887 9.13867 33.3531 8.73828 33.4781 8.37109C33.6031 8 33.7789 7.67773 34.0055 7.4043C34.232 7.13086 34.5016 6.91992 34.8141 6.77148C35.1305 6.61914 35.4801 6.54297 35.8629 6.54297C36.1754 6.54297 36.4566 6.58594 36.7066 6.67188C36.9566 6.75391 37.1695 6.88672 37.3453 7.07031C37.525 7.25391 37.6617 7.49219 37.7555 7.78516C37.8492 8.07422 37.8961 8.42773 37.8961 8.8457V13H36.8063V8.83398C36.8063 8.50195 36.7574 8.23633 36.6598 8.03711C36.5621 7.83398 36.4195 7.6875 36.232 7.59766C36.0445 7.50391 35.8141 7.45703 35.5406 7.45703C35.2711 7.45703 35.025 7.51367 34.8023 7.62695C34.5836 7.74023 34.3941 7.89648 34.234 8.0957C34.0777 8.29492 33.9547 8.52344 33.8648 8.78125C33.7789 9.03516 33.7359 9.30469 33.7359 9.58984ZM43.4187 11.7695V4H44.5085V13H43.5124L43.4187 11.7695ZM39.153 9.90039V9.77734C39.153 9.29297 39.2116 8.85352 39.3288 8.45898C39.4499 8.06055 39.6198 7.71875 39.8386 7.43359C40.0612 7.14844 40.3249 6.92969 40.6296 6.77734C40.9382 6.62109 41.282 6.54297 41.6609 6.54297C42.0593 6.54297 42.407 6.61328 42.7038 6.75391C43.0046 6.89062 43.2585 7.0918 43.4655 7.35742C43.6765 7.61914 43.8425 7.93555 43.9636 8.30664C44.0847 8.67773 44.1687 9.09766 44.2155 9.56641V10.1055C44.1726 10.5703 44.0886 10.9883 43.9636 11.3594C43.8425 11.7305 43.6765 12.0469 43.4655 12.3086C43.2585 12.5703 43.0046 12.7715 42.7038 12.9121C42.403 13.0488 42.0515 13.1172 41.6491 13.1172C41.278 13.1172 40.9382 13.0371 40.6296 12.877C40.3249 12.7168 40.0612 12.4922 39.8386 12.2031C39.6198 11.9141 39.4499 11.5742 39.3288 11.1836C39.2116 10.7891 39.153 10.3613 39.153 9.90039ZM40.2429 9.77734V9.90039C40.2429 10.2168 40.2741 10.5137 40.3366 10.791C40.403 11.0684 40.5046 11.3125 40.6413 11.5234C40.778 11.7344 40.9519 11.9004 41.1628 12.0215C41.3737 12.1387 41.6257 12.1973 41.9187 12.1973C42.278 12.1973 42.573 12.1211 42.8034 11.9688C43.0378 11.8164 43.2253 11.6152 43.3659 11.3652C43.5066 11.1152 43.6159 10.8438 43.6941 10.5508V9.13867C43.6472 8.92383 43.5788 8.7168 43.489 8.51758C43.403 8.31445 43.2898 8.13477 43.1491 7.97852C43.0124 7.81836 42.8425 7.69141 42.6394 7.59766C42.4402 7.50391 42.2038 7.45703 41.9304 7.45703C41.6335 7.45703 41.3777 7.51953 41.1628 7.64453C40.9519 7.76562 40.778 7.93359 40.6413 8.14844C40.5046 8.35938 40.403 8.60547 40.3366 8.88672C40.2741 9.16406 40.2429 9.46094 40.2429 9.77734ZM47.16 7.65625V13H46.076V6.66016H47.1307L47.16 7.65625ZM49.1405 6.625L49.1346 7.63281C49.0448 7.61328 48.9588 7.60156 48.8768 7.59766C48.7987 7.58984 48.7088 7.58594 48.6073 7.58594C48.3573 7.58594 48.1366 7.625 47.9452 7.70312C47.7537 7.78125 47.5916 7.89062 47.4588 8.03125C47.326 8.17188 47.2205 8.33984 47.1424 8.53516C47.0682 8.72656 47.0194 8.9375 46.9959 9.16797L46.6912 9.34375C46.6912 8.96094 46.7284 8.60156 46.8026 8.26562C46.8807 7.92969 46.9998 7.63281 47.16 7.375C47.3202 7.11328 47.5233 6.91016 47.7694 6.76562C48.0194 6.61719 48.3162 6.54297 48.66 6.54297C48.7381 6.54297 48.828 6.55273 48.9295 6.57227C49.0311 6.58789 49.1014 6.60547 49.1405 6.625ZM51.2002 6.66016V13H50.1103V6.66016H51.2002ZM50.0283 4.97852C50.0283 4.80273 50.081 4.6543 50.1865 4.5332C50.2959 4.41211 50.456 4.35156 50.667 4.35156C50.874 4.35156 51.0322 4.41211 51.1416 4.5332C51.2548 4.6543 51.3115 4.80273 51.3115 4.97852C51.3115 5.14648 51.2548 5.29102 51.1416 5.41211C51.0322 5.5293 50.874 5.58789 50.667 5.58789C50.456 5.58789 50.2959 5.5293 50.1865 5.41211C50.081 5.29102 50.0283 5.14648 50.0283 4.97852ZM52.5333 9.90039V9.76562C52.5333 9.30859 52.5997 8.88477 52.7325 8.49414C52.8653 8.09961 53.0567 7.75781 53.3067 7.46875C53.5567 7.17578 53.8595 6.94922 54.2149 6.78906C54.5704 6.625 54.9688 6.54297 55.4102 6.54297C55.8555 6.54297 56.2559 6.625 56.6114 6.78906C56.9708 6.94922 57.2755 7.17578 57.5255 7.46875C57.7794 7.75781 57.9727 8.09961 58.1055 8.49414C58.2384 8.88477 58.3048 9.30859 58.3048 9.76562V9.90039C58.3048 10.3574 58.2384 10.7812 58.1055 11.1719C57.9727 11.5625 57.7794 11.9043 57.5255 12.1973C57.2755 12.4863 56.9727 12.7129 56.6173 12.877C56.2657 13.0371 55.8673 13.1172 55.422 13.1172C54.9766 13.1172 54.5762 13.0371 54.2208 12.877C53.8653 12.7129 53.5606 12.4863 53.3067 12.1973C53.0567 11.9043 52.8653 11.5625 52.7325 11.1719C52.5997 10.7812 52.5333 10.3574 52.5333 9.90039ZM53.6173 9.76562V9.90039C53.6173 10.2168 53.6544 10.5156 53.7286 10.7969C53.8028 11.0742 53.9141 11.3203 54.0626 11.5352C54.2149 11.75 54.4044 11.9199 54.6309 12.0449C54.8575 12.166 55.1212 12.2266 55.422 12.2266C55.7188 12.2266 55.9786 12.166 56.2012 12.0449C56.4278 11.9199 56.6153 11.75 56.7637 11.5352C56.9122 11.3203 57.0235 11.0742 57.0977 10.7969C57.1759 10.5156 57.2149 10.2168 57.2149 9.90039V9.76562C57.2149 9.45312 57.1759 9.1582 57.0977 8.88086C57.0235 8.59961 56.9102 8.35156 56.7579 8.13672C56.6095 7.91797 56.422 7.74609 56.1954 7.62109C55.9727 7.49609 55.711 7.43359 55.4102 7.43359C55.1134 7.43359 54.8516 7.49609 54.6251 7.62109C54.4024 7.74609 54.2149 7.91797 54.0626 8.13672C53.9141 8.35156 53.8028 8.59961 53.7286 8.88086C53.6544 9.1582 53.6173 9.45312 53.6173 9.76562ZM63.5402 11.7695V4H64.6301V13H63.634L63.5402 11.7695ZM59.2746 9.90039V9.77734C59.2746 9.29297 59.3332 8.85352 59.4504 8.45898C59.5715 8.06055 59.7414 7.71875 59.9602 7.43359C60.1828 7.14844 60.4465 6.92969 60.7512 6.77734C61.0598 6.62109 61.4035 6.54297 61.7824 6.54297C62.1809 6.54297 62.5285 6.61328 62.8254 6.75391C63.1262 6.89062 63.3801 7.0918 63.5871 7.35742C63.798 7.61914 63.9641 7.93555 64.0852 8.30664C64.2062 8.67773 64.2902 9.09766 64.3371 9.56641V10.1055C64.2941 10.5703 64.2102 10.9883 64.0852 11.3594C63.9641 11.7305 63.798 12.0469 63.5871 12.3086C63.3801 12.5703 63.1262 12.7715 62.8254 12.9121C62.5246 13.0488 62.173 13.1172 61.7707 13.1172C61.3996 13.1172 61.0598 13.0371 60.7512 12.877C60.4465 12.7168 60.1828 12.4922 59.9602 12.2031C59.7414 11.9141 59.5715 11.5742 59.4504 11.1836C59.3332 10.7891 59.2746 10.3613 59.2746 9.90039ZM60.3645 9.77734V9.90039C60.3645 10.2168 60.3957 10.5137 60.4582 10.791C60.5246 11.0684 60.6262 11.3125 60.7629 11.5234C60.8996 11.7344 61.0734 11.9004 61.2844 12.0215C61.4953 12.1387 61.7473 12.1973 62.0402 12.1973C62.3996 12.1973 62.6945 12.1211 62.925 11.9688C63.1594 11.8164 63.3469 11.6152 63.4875 11.3652C63.6281 11.1152 63.7375 10.8438 63.8156 10.5508V9.13867C63.7687 8.92383 63.7004 8.7168 63.6105 8.51758C63.5246 8.31445 63.4113 8.13477 63.2707 7.97852C63.134 7.81836 62.9641 7.69141 62.7609 7.59766C62.5617 7.50391 62.3254 7.45703 62.052 7.45703C61.7551 7.45703 61.4992 7.51953 61.2844 7.64453C61.0734 7.76562 60.8996 7.93359 60.7629 8.14844C60.6262 8.35938 60.5246 8.60547 60.4582 8.88672C60.3957 9.16406 60.3645 9.46094 60.3645 9.77734ZM72.1362 4.46875V13H71.0229V4.46875H72.1362ZM74.8784 4.46875V5.39453H68.2866V4.46875H74.8784ZM74.9869 9.90039V9.76562C74.9869 9.30859 75.0533 8.88477 75.1861 8.49414C75.3189 8.09961 75.5103 7.75781 75.7603 7.46875C76.0103 7.17578 76.313 6.94922 76.6685 6.78906C77.024 6.625 77.4224 6.54297 77.8638 6.54297C78.3091 6.54297 78.7095 6.625 79.065 6.78906C79.4244 6.94922 79.7291 7.17578 79.9791 7.46875C80.233 7.75781 80.4263 8.09961 80.5591 8.49414C80.692 8.88477 80.7584 9.30859 80.7584 9.76562V9.90039C80.7584 10.3574 80.692 10.7812 80.5591 11.1719C80.4263 11.5625 80.233 11.9043 79.9791 12.1973C79.7291 12.4863 79.4263 12.7129 79.0709 12.877C78.7193 13.0371 78.3209 13.1172 77.8755 13.1172C77.4302 13.1172 77.0298 13.0371 76.6744 12.877C76.3189 12.7129 76.0142 12.4863 75.7603 12.1973C75.5103 11.9043 75.3189 11.5625 75.1861 11.1719C75.0533 10.7812 74.9869 10.3574 74.9869 9.90039ZM76.0709 9.76562V9.90039C76.0709 10.2168 76.108 10.5156 76.1822 10.7969C76.2564 11.0742 76.3677 11.3203 76.5162 11.5352C76.6685 11.75 76.858 11.9199 77.0845 12.0449C77.3111 12.166 77.5748 12.2266 77.8755 12.2266C78.1724 12.2266 78.4322 12.166 78.6548 12.0449C78.8814 11.9199 79.0689 11.75 79.2173 11.5352C79.3658 11.3203 79.4771 11.0742 79.5513 10.7969C79.6295 10.5156 79.6685 10.2168 79.6685 9.90039V9.76562C79.6685 9.45312 79.6295 9.1582 79.5513 8.88086C79.4771 8.59961 79.3638 8.35156 79.2115 8.13672C79.063 7.91797 78.8755 7.74609 78.649 7.62109C78.4263 7.49609 78.1646 7.43359 77.8638 7.43359C77.567 7.43359 77.3052 7.49609 77.0787 7.62109C76.856 7.74609 76.6685 7.91797 76.5162 8.13672C76.3677 8.35156 76.2564 8.59961 76.1822 8.88086C76.108 9.1582 76.0709 9.45312 76.0709 9.76562ZM85.3141 4.46875V13H84.2009V4.46875H85.3141ZM88.0563 4.46875V5.39453H81.4645V4.46875H88.0563ZM88.1648 9.90039V9.76562C88.1648 9.30859 88.2312 8.88477 88.3641 8.49414C88.4969 8.09961 88.6883 7.75781 88.9383 7.46875C89.1883 7.17578 89.491 6.94922 89.8465 6.78906C90.202 6.625 90.6004 6.54297 91.0418 6.54297C91.4871 6.54297 91.8875 6.625 92.243 6.78906C92.6023 6.94922 92.907 7.17578 93.157 7.46875C93.4109 7.75781 93.6043 8.09961 93.7371 8.49414C93.8699 8.88477 93.9363 9.30859 93.9363 9.76562V9.90039C93.9363 10.3574 93.8699 10.7812 93.7371 11.1719C93.6043 11.5625 93.4109 11.9043 93.157 12.1973C92.907 12.4863 92.6043 12.7129 92.2488 12.877C91.8973 13.0371 91.4988 13.1172 91.0535 13.1172C90.6082 13.1172 90.2078 13.0371 89.8523 12.877C89.4969 12.7129 89.1922 12.4863 88.9383 12.1973C88.6883 11.9043 88.4969 11.5625 88.3641 11.1719C88.2312 10.7812 88.1648 10.3574 88.1648 9.90039ZM89.2488 9.76562V9.90039C89.2488 10.2168 89.2859 10.5156 89.3602 10.7969C89.4344 11.0742 89.5457 11.3203 89.6941 11.5352C89.8465 11.75 90.0359 11.9199 90.2625 12.0449C90.4891 12.166 90.7527 12.2266 91.0535 12.2266C91.3504 12.2266 91.6102 12.166 91.8328 12.0449C92.0594 11.9199 92.2469 11.75 92.3953 11.5352C92.5437 11.3203 92.6551 11.0742 92.7293 10.7969C92.8074 10.5156 92.8465 10.2168 92.8465 9.90039V9.76562C92.8465 9.45312 92.8074 9.1582 92.7293 8.88086C92.6551 8.59961 92.5418 8.35156 92.3895 8.13672C92.241 7.91797 92.0535 7.74609 91.827 7.62109C91.6043 7.49609 91.3426 7.43359 91.0418 7.43359C90.7449 7.43359 90.4832 7.49609 90.2566 7.62109C90.034 7.74609 89.8465 7.91797 89.6941 8.13672C89.5457 8.35156 89.4344 8.59961 89.3602 8.88086C89.2859 9.1582 89.2488 9.45312 89.2488 9.76562ZM103.347 10.2871H104.472C104.413 10.8262 104.259 11.3086 104.009 11.7344C103.759 12.1602 103.405 12.498 102.948 12.748C102.491 12.9941 101.921 13.1172 101.237 13.1172C100.737 13.1172 100.282 13.0234 99.8721 12.8359C99.4659 12.6484 99.1162 12.3828 98.8233 12.0391C98.5303 11.6914 98.3037 11.2754 98.1436 10.791C97.9873 10.3027 97.9092 9.75977 97.9092 9.16211V8.3125C97.9092 7.71484 97.9873 7.17383 98.1436 6.68945C98.3037 6.20117 98.5323 5.7832 98.8291 5.43555C99.1299 5.08789 99.4912 4.82031 99.9131 4.63281C100.335 4.44531 100.81 4.35156 101.337 4.35156C101.981 4.35156 102.526 4.47266 102.972 4.71484C103.417 4.95703 103.763 5.29297 104.009 5.72266C104.259 6.14844 104.413 6.64258 104.472 7.20508H103.347C103.292 6.80664 103.19 6.46484 103.042 6.17969C102.894 5.89062 102.683 5.66797 102.409 5.51172C102.136 5.35547 101.778 5.27734 101.337 5.27734C100.958 5.27734 100.624 5.34961 100.335 5.49414C100.05 5.63867 99.8096 5.84375 99.6143 6.10938C99.4229 6.375 99.2784 6.69336 99.1807 7.06445C99.083 7.43555 99.0342 7.84766 99.0342 8.30078V9.16211C99.0342 9.58008 99.0772 9.97266 99.1631 10.3398C99.253 10.707 99.3877 11.0293 99.5674 11.3066C99.7471 11.584 99.9756 11.8027 100.253 11.9629C100.53 12.1191 100.858 12.1973 101.237 12.1973C101.718 12.1973 102.101 12.1211 102.386 11.9688C102.671 11.8164 102.886 11.5977 103.03 11.3125C103.179 11.0273 103.284 10.6855 103.347 10.2871ZM105.442 9.90039V9.76562C105.442 9.30859 105.508 8.88477 105.641 8.49414C105.774 8.09961 105.965 7.75781 106.215 7.46875C106.465 7.17578 106.768 6.94922 107.123 6.78906C107.479 6.625 107.877 6.54297 108.319 6.54297C108.764 6.54297 109.164 6.625 109.52 6.78906C109.879 6.94922 110.184 7.17578 110.434 7.46875C110.688 7.75781 110.881 8.09961 111.014 8.49414C111.147 8.88477 111.213 9.30859 111.213 9.76562V9.90039C111.213 10.3574 111.147 10.7812 111.014 11.1719C110.881 11.5625 110.688 11.9043 110.434 12.1973C110.184 12.4863 109.881 12.7129 109.526 12.877C109.174 13.0371 108.776 13.1172 108.33 13.1172C107.885 13.1172 107.485 13.0371 107.129 12.877C106.774 12.7129 106.469 12.4863 106.215 12.1973C105.965 11.9043 105.774 11.5625 105.641 11.1719C105.508 10.7812 105.442 10.3574 105.442 9.90039ZM106.526 9.76562V9.90039C106.526 10.2168 106.563 10.5156 106.637 10.7969C106.711 11.0742 106.822 11.3203 106.971 11.5352C107.123 11.75 107.313 11.9199 107.539 12.0449C107.766 12.166 108.029 12.2266 108.33 12.2266C108.627 12.2266 108.887 12.166 109.11 12.0449C109.336 11.9199 109.524 11.75 109.672 11.5352C109.82 11.3203 109.932 11.0742 110.006 10.7969C110.084 10.5156 110.123 10.2168 110.123 9.90039V9.76562C110.123 9.45312 110.084 9.1582 110.006 8.88086C109.932 8.59961 109.819 8.35156 109.666 8.13672C109.518 7.91797 109.33 7.74609 109.104 7.62109C108.881 7.49609 108.619 7.43359 108.319 7.43359C108.022 7.43359 107.76 7.49609 107.533 7.62109C107.311 7.74609 107.123 7.91797 106.971 8.13672C106.822 8.35156 106.711 8.59961 106.637 8.88086C106.563 9.1582 106.526 9.45312 106.526 9.76562ZM113.531 7.91992V13H112.441V6.66016H113.472L113.531 7.91992ZM113.308 9.58984L112.804 9.57227C112.808 9.13867 112.865 8.73828 112.974 8.37109C113.083 8 113.245 7.67773 113.46 7.4043C113.675 7.13086 113.943 6.91992 114.263 6.77148C114.583 6.61914 114.954 6.54297 115.376 6.54297C115.673 6.54297 115.947 6.58594 116.197 6.67188C116.447 6.75391 116.663 6.88477 116.847 7.06445C117.031 7.24414 117.173 7.47461 117.275 7.75586C117.376 8.03711 117.427 8.37695 117.427 8.77539V13H116.343V8.82812C116.343 8.49609 116.286 8.23047 116.173 8.03125C116.064 7.83203 115.908 7.6875 115.704 7.59766C115.501 7.50391 115.263 7.45703 114.99 7.45703C114.669 7.45703 114.402 7.51367 114.187 7.62695C113.972 7.74023 113.8 7.89648 113.671 8.0957C113.542 8.29492 113.449 8.52344 113.39 8.78125C113.335 9.03516 113.308 9.30469 113.308 9.58984ZM117.415 8.99219L116.689 9.21484C116.693 8.86719 116.749 8.5332 116.859 8.21289C116.972 7.89258 117.134 7.60742 117.345 7.35742C117.56 7.10742 117.824 6.91016 118.136 6.76562C118.449 6.61719 118.806 6.54297 119.208 6.54297C119.548 6.54297 119.849 6.58789 120.111 6.67773C120.376 6.76758 120.599 6.90625 120.779 7.09375C120.962 7.27734 121.101 7.51367 121.195 7.80273C121.288 8.0918 121.335 8.43555 121.335 8.83398V13H120.245V8.82227C120.245 8.4668 120.189 8.19141 120.075 7.99609C119.966 7.79688 119.81 7.6582 119.607 7.58008C119.408 7.49805 119.169 7.45703 118.892 7.45703C118.654 7.45703 118.443 7.49805 118.259 7.58008C118.075 7.66211 117.921 7.77539 117.796 7.91992C117.671 8.06055 117.575 8.22266 117.509 8.40625C117.447 8.58984 117.415 8.78516 117.415 8.99219ZM123.94 7.87891V15.4375H122.85V6.66016H123.846L123.94 7.87891ZM128.211 9.77734V9.90039C128.211 10.3613 128.157 10.7891 128.047 11.1836C127.938 11.5742 127.778 11.9141 127.567 12.2031C127.36 12.4922 127.104 12.7168 126.799 12.877C126.495 13.0371 126.145 13.1172 125.75 13.1172C125.348 13.1172 124.993 13.0508 124.684 12.918C124.375 12.7852 124.114 12.5918 123.899 12.3379C123.684 12.084 123.512 11.7793 123.383 11.4238C123.258 11.0684 123.172 10.668 123.125 10.2227V9.56641C123.172 9.09766 123.26 8.67773 123.389 8.30664C123.518 7.93555 123.688 7.61914 123.899 7.35742C124.114 7.0918 124.373 6.89062 124.678 6.75391C124.983 6.61328 125.334 6.54297 125.733 6.54297C126.131 6.54297 126.485 6.62109 126.793 6.77734C127.102 6.92969 127.362 7.14844 127.573 7.43359C127.784 7.71875 127.942 8.06055 128.047 8.45898C128.157 8.85352 128.211 9.29297 128.211 9.77734ZM127.121 9.90039V9.77734C127.121 9.46094 127.088 9.16406 127.022 8.88672C126.955 8.60547 126.852 8.35938 126.711 8.14844C126.575 7.93359 126.399 7.76562 126.184 7.64453C125.969 7.51953 125.713 7.45703 125.416 7.45703C125.143 7.45703 124.905 7.50391 124.702 7.59766C124.502 7.69141 124.332 7.81836 124.192 7.97852C124.051 8.13477 123.936 8.31445 123.846 8.51758C123.76 8.7168 123.696 8.92383 123.653 9.13867V10.6562C123.731 10.9297 123.84 11.1875 123.981 11.4297C124.121 11.668 124.309 11.8613 124.543 12.0098C124.778 12.1543 125.073 12.2266 125.428 12.2266C125.721 12.2266 125.973 12.166 126.184 12.0449C126.399 11.9199 126.575 11.75 126.711 11.5352C126.852 11.3203 126.955 11.0742 127.022 10.7969C127.088 10.5156 127.121 10.2168 127.121 9.90039ZM133.212 11.916V8.65234C133.212 8.40234 133.162 8.18555 133.06 8.00195C132.962 7.81445 132.814 7.66992 132.615 7.56836C132.416 7.4668 132.169 7.41602 131.876 7.41602C131.603 7.41602 131.363 7.46289 131.156 7.55664C130.953 7.65039 130.792 7.77344 130.675 7.92578C130.562 8.07812 130.505 8.24219 130.505 8.41797H129.421C129.421 8.19141 129.48 7.9668 129.597 7.74414C129.714 7.52148 129.882 7.32031 130.101 7.14062C130.324 6.95703 130.589 6.8125 130.898 6.70703C131.21 6.59766 131.558 6.54297 131.941 6.54297C132.402 6.54297 132.808 6.62109 133.16 6.77734C133.515 6.93359 133.792 7.16992 133.992 7.48633C134.195 7.79883 134.296 8.19141 134.296 8.66406V11.6172C134.296 11.8281 134.314 12.0527 134.349 12.291C134.388 12.5293 134.445 12.7344 134.519 12.9062V13H133.388C133.334 12.875 133.291 12.709 133.259 12.502C133.228 12.291 133.212 12.0957 133.212 11.916ZM133.4 9.15625L133.412 9.91797H132.316C132.007 9.91797 131.732 9.94336 131.49 9.99414C131.248 10.041 131.044 10.1133 130.88 10.2109C130.716 10.3086 130.591 10.4316 130.505 10.5801C130.419 10.7246 130.376 10.8945 130.376 11.0898C130.376 11.2891 130.421 11.4707 130.511 11.6348C130.601 11.7988 130.736 11.9297 130.916 12.0273C131.099 12.1211 131.324 12.168 131.589 12.168C131.921 12.168 132.214 12.0977 132.468 11.957C132.722 11.8164 132.923 11.6445 133.072 11.4414C133.224 11.2383 133.306 11.041 133.318 10.8496L133.781 11.3711C133.753 11.5352 133.679 11.7168 133.558 11.916C133.437 12.1152 133.275 12.3066 133.072 12.4902C132.873 12.6699 132.634 12.8203 132.357 12.9414C132.084 13.0586 131.775 13.1172 131.431 13.1172C131.001 13.1172 130.625 13.0332 130.3 12.8652C129.98 12.6973 129.73 12.4727 129.55 12.1914C129.375 11.9062 129.287 11.5879 129.287 11.2363C129.287 10.8965 129.353 10.5977 129.486 10.3398C129.619 10.0781 129.81 9.86133 130.06 9.68945C130.31 9.51367 130.611 9.38086 130.962 9.29102C131.314 9.20117 131.707 9.15625 132.14 9.15625H133.4ZM136.965 8.01367V13H135.881V6.66016H136.907L136.965 8.01367ZM136.708 9.58984L136.256 9.57227C136.26 9.13867 136.325 8.73828 136.45 8.37109C136.575 8 136.751 7.67773 136.977 7.4043C137.204 7.13086 137.473 6.91992 137.786 6.77148C138.102 6.61914 138.452 6.54297 138.835 6.54297C139.147 6.54297 139.428 6.58594 139.678 6.67188C139.928 6.75391 140.141 6.88672 140.317 7.07031C140.497 7.25391 140.633 7.49219 140.727 7.78516C140.821 8.07422 140.868 8.42773 140.868 8.8457V13H139.778V8.83398C139.778 8.50195 139.729 8.23633 139.631 8.03711C139.534 7.83398 139.391 7.6875 139.204 7.59766C139.016 7.50391 138.786 7.45703 138.512 7.45703C138.243 7.45703 137.997 7.51367 137.774 7.62695C137.555 7.74023 137.366 7.89648 137.206 8.0957C137.049 8.29492 136.926 8.52344 136.837 8.78125C136.751 9.03516 136.708 9.30469 136.708 9.58984ZM144.176 12.3438L145.939 6.66016H147.099L144.556 13.9785C144.498 14.1348 144.42 14.3027 144.322 14.4824C144.228 14.666 144.107 14.8398 143.959 15.0039C143.81 15.168 143.631 15.3008 143.42 15.4023C143.213 15.5078 142.965 15.5605 142.676 15.5605C142.59 15.5605 142.48 15.5488 142.347 15.5254C142.215 15.502 142.121 15.4824 142.066 15.4668L142.06 14.5879C142.092 14.5918 142.14 14.5957 142.207 14.5996C142.277 14.6074 142.326 14.6113 142.353 14.6113C142.599 14.6113 142.808 14.5781 142.98 14.5117C143.152 14.4492 143.297 14.3418 143.414 14.1895C143.535 14.041 143.638 13.8359 143.724 13.5742L144.176 12.3438ZM142.881 6.66016L144.527 11.582L144.808 12.7246L144.029 13.123L141.697 6.66016H142.881Z" fill="#AAAAAA"/>
<path d="M158 3.5C155.25 3.5 153 5.75 153 8.5C153 11.25 155.25 13.5 158 13.5C160.75 13.5 163 11.25 163 8.5C163 5.75 160.75 3.5 158 3.5ZM156.9 11.15L154.8 9.1L155.5 8.4L156.9 9.75L160.5 6.2L161.2 6.9L156.9 11.15Z" fill="#AAAAAA"/>
</svg>
